<?xml version="1.0" standalone="no"?>
<!DOCTYPE svg PUBLIC "-//W3C//DTD SVG 20010904//EN"
 "http://www.w3.org/TR/2001/REC-SVG-20010904/DTD/svg10.dtd">
<svg version="1.0" xmlns="http://www.w3.org/2000/svg"
 width="100.000000pt" height="100.000000pt" viewBox="0 0 100.000000 100.000000"
 preserveAspectRatio="xMidYMid meet">

<g transform="translate(0.000000,100.000000) scale(0.100000,-0.100000)"
fill="#000000" stroke="none">
<path d="M56 858 c-14 -19 -16 -74 -16 -400 0 -365 1 -379 20 -398 19 -19 33
-20 440 -20 407 0 421 1 440 20 19 19 20 33 20 398 0 326 -2 381 -16 400 l-15
22 -429 0 -429 0 -15 -22z m242 -164 c16 -92 48 -141 115 -175 59 -31 151 -24
202 15 47 36 73 79 81 133 7 49 20 62 39 42 10 -10 11 -26 6 -57 -12 -64 -59
-132 -115 -167 -44 -27 -58 -30 -126 -30 -68 0 -82 3 -126 30 -62 39 -114 120
-114 180 0 23 3 45 7 49 11 11 28 1 31 -20z m23 -397 c-13 -13 -26 -3 -16 12
3 6 11 8 17 5 6 -4 6 -10 -1 -17z m-73 -39 l21 -53 0 53 c1 28 6 52 11 52 6 0
10 -25 10 -55 0 -47 -3 -55 -19 -55 -10 0 -21 7 -25 15 -3 8 -15 15 -26 15
-11 0 -23 -7 -26 -15 -9 -24 -26 -18 -18 7 14 47 35 88 43 88 4 0 18 -24 29
-52z m152 42 c0 -5 -12 -10 -26 -10 -32 0 -27 -22 7 -31 24 -7 24 -7 -3 -8
-42 -2 -35 -28 8 -33 41 -5 65 21 39 42 -9 7 -13 15 -10 18 2 3 12 -1 21 -8
13 -12 17 -11 24 0 5 8 12 11 16 7 4 -3 1 -14 -6 -22 -10 -12 -10 -19 -2 -27
20 -20 13 -32 -7 -14 -16 15 -19 15 -24 1 -5 -10 -20 -15 -52 -15 l-45 0 0 55
c0 54 0 55 30 55 17 0 30 -4 30 -10z m-80 -60 c0 -22 -4 -40 -10 -40 -5 0 -10
18 -10 40 0 22 5 40 10 40 6 0 10 -18 10 -40z m244 18 c14 -23 -3 -52 -33 -56
-13 -2 -21 -11 -21 -23 0 -10 -4 -19 -10 -19 -14 0 -12 94 2 108 17 17 48 11
62 -10z m56 12 c0 -5 -4 -10 -10 -10 -5 0 -10 -13 -10 -30 0 -16 -4 -30 -10
-30 -5 0 -10 18 -10 40 0 33 3 40 20 40 11 0 20 -4 20 -10z m68 -2 c22 -22 13
-38 -20 -38 -23 0 -29 -3 -19 -9 8 -5 21 -7 29 -3 10 3 13 1 8 -6 -13 -21 -46
-13 -58 13 -19 41 28 75 60 43z m72 1 c0 -6 -7 -9 -15 -6 -8 4 -17 2 -20 -3
-4 -6 -1 -10 5 -10 6 0 24 -10 40 -22 16 -12 33 -18 37 -14 4 4 -3 15 -16 25
-13 10 -21 23 -17 30 9 14 43 14 52 0 4 -8 0 -9 -15 -4 -11 3 -21 2 -21 -3 0
-5 9 -12 20 -15 24 -6 26 -35 4 -44 -9 -3 -25 -1 -35 5 -11 7 -20 8 -24 2 -8
-14 -42 -13 -51 2 -5 8 0 9 14 6 28 -8 39 8 12 17 -30 10 -26 45 5 45 14 0 25
-5 25 -11z"/>
<path d="M207 260 c-3 -13 0 -20 9 -20 15 0 19 26 5 34 -5 3 -11 -3 -14 -14z"/>
<path d="M517 263 c-12 -12 -7 -41 7 -46 22 -9 41 19 26 38 -14 16 -23 19 -33
8z"/>
<path d="M650 260 c-12 -8 -10 -10 8 -10 13 0 20 4 17 10 -7 12 -6 12 -25 0z"/>
</g>
</svg>
