<?xml version="1.0" standalone="no"?>
<!DOCTYPE svg PUBLIC "-//W3C//DTD SVG 20010904//EN"
 "http://www.w3.org/TR/2001/REC-SVG-20010904/DTD/svg10.dtd">
<svg version="1.0" xmlns="http://www.w3.org/2000/svg"
 width="100.000000pt" height="100.000000pt" viewBox="0 0 100.000000 100.000000"
 preserveAspectRatio="xMidYMid meet">

<g transform="translate(0.000000,100.000000) scale(0.100000,-0.100000)"
fill="#000000" stroke="none">
<path d="M415 848 c-48 -17 -81 -45 -99 -82 -26 -55 -22 -63 37 -70 43 -6 54
-5 62 10 32 55 95 73 128 36 17 -18 24 -82 10 -82 -5 0 -37 -5 -73 -11 -130
-20 -191 -73 -193 -167 -4 -99 47 -152 145 -152 43 0 64 6 101 30 l47 30 29
-32 28 -31 29 20 c16 12 37 30 47 41 18 19 17 21 -2 58 -18 33 -21 57 -21 169
0 157 -11 188 -80 223 -49 24 -141 29 -195 10z m145 -303 c0 -96 -69 -156
-120 -105 -50 50 1 140 79 140 40 0 41 -1 41 -35z"/>
</g>
</svg>
