<?xml version="1.0" standalone="no"?>
<!DOCTYPE svg PUBLIC "-//W3C//DTD SVG 20010904//EN"
 "http://www.w3.org/TR/2001/REC-SVG-20010904/DTD/svg10.dtd">
<svg version="1.0" xmlns="http://www.w3.org/2000/svg"
 width="100.000000pt" height="99.000000pt" viewBox="0 0 100.000000 99.000000"
 preserveAspectRatio="xMidYMid meet">

<g transform="translate(0.000000,99.000000) scale(0.100000,-0.100000)"
fill="#000000" stroke="none">
<path d="M0 495 l0 -495 500 0 500 0 0 495 0 495 -500 0 -500 0 0 -495z m190
251 c0 -91 3 -118 16 -130 19 -19 25 -20 47 -3 13 10 17 33 19 127 l3 115 30
0 30 0 3 -116 c2 -106 1 -118 -20 -149 -39 -58 -114 -65 -164 -15 -23 23 -24
30 -24 155 l0 130 30 0 30 0 0 -114z m307 84 c7 -14 25 -52 40 -85 l28 -60 3
88 3 87 29 0 30 0 0 -160 0 -160 -33 0 c-31 0 -34 4 -69 83 l-37 82 -1 -82 0
-83 -35 0 -35 0 0 161 0 160 32 -3 c23 -2 36 -10 45 -28z m303 -130 l0 -160
-35 0 -35 0 0 153 c0 85 3 157 7 160 3 4 19 7 35 7 l28 0 0 -160z m-519 -266
c17 -8 37 -30 45 -49 18 -45 18 -145 -1 -193 -14 -34 -14 -43 -1 -80 l15 -42
-33 0 c-28 0 -36 5 -44 29 -7 21 -19 30 -43 35 -18 3 -46 18 -61 33 -27 26
-28 31 -28 122 1 100 5 113 50 144 31 21 62 22 101 1z m209 -109 l0 -125 70 0
70 0 0 -35 0 -35 -105 0 -105 0 0 160 0 160 35 0 35 0 0 -125z m353 85 c25
-28 27 -36 27 -119 0 -81 -2 -92 -26 -120 -48 -57 -135 -47 -169 19 -20 39
-20 161 0 200 34 66 117 76 168 20z"/>
<path d="M201 366 c-19 -23 -10 -146 12 -160 12 -8 22 -8 35 0 14 9 17 26 17
90 0 78 0 79 -26 82 -14 2 -31 -4 -38 -12z"/>
<path d="M737 373 c-4 -3 -7 -41 -7 -84 0 -76 1 -79 25 -85 42 -10 55 10 55
85 0 39 -5 72 -12 79 -13 13 -50 16 -61 5z"/>
</g>
</svg>
