<?xml version="1.0" standalone="no"?>
<!DOCTYPE svg PUBLIC "-//W3C//DTD SVG 20010904//EN"
 "http://www.w3.org/TR/2001/REC-SVG-20010904/DTD/svg10.dtd">
<svg version="1.0" xmlns="http://www.w3.org/2000/svg"
 width="735.000000pt" height="400.000000pt" viewBox="0 0 735.000000 400.000000"
 preserveAspectRatio="xMidYMid meet">

<g transform="translate(0.000000,400.000000) scale(0.100000,-0.100000)"
fill="#000000" stroke="none">
<path d="M0 2000 l0 -2000 3675 0 3675 0 0 2000 0 2000 -2004 0 c-1852 0
-2005 -1 -2017 -17 -47 -56 -201 -56 -248 0 -12 16 -132 17 -1547 17 l-1534 0
0 -2000z m3116 1846 c-32 -31 -33 -67 -2 -103 21 -24 31 -27 84 -28 50 0 65 4
86 24 15 14 26 35 26 51 0 31 -25 70 -46 70 -9 0 -14 11 -14 30 0 34 9 36 49
15 55 -28 76 -115 45 -181 -44 -92 -213 -99 -277 -13 -44 61 -27 161 35 199
l33 20 3 -29 c2 -20 -4 -36 -22 -55z m2434 -41 l0 -65 65 0 c52 0 66 3 74 19
15 28 -8 51 -57 58 -36 5 -42 9 -42 29 0 21 5 24 34 24 46 0 94 -18 106 -40
17 -31 12 -96 -9 -121 -18 -23 -25 -24 -143 -24 l-123 0 0 25 c0 20 6 26 28
28 26 3 27 6 27 61 0 60 4 71 27 71 9 0 13 -18 13 -65z m-3788 15 c61 -17 87
-78 53 -126 -20 -29 -11 -34 57 -34 51 0 58 -2 58 -20 0 -19 -7 -20 -160 -20
-153 0 -160 1 -160 20 0 11 7 20 16 20 14 0 14 2 0 22 -35 50 -11 120 47 137
43 12 46 12 89 1z m3808 -193 c15 -32 16 -32 93 -35 l78 -3 -3 -27 -3 -27
-110 0 -110 0 3 25 c4 38 3 43 -4 73 -6 24 -3 27 17 27 17 0 28 -10 39 -33z
m-2225 -32 l0 -30 -145 0 c-132 0 -145 2 -148 18 -9 45 -1 48 150 45 l143 -3
0 -30z m-1520 -42 c-8 -19 -8 -26 1 -90 5 -33 2 -45 -15 -62 -42 -42 -101 -11
-101 53 0 19 -9 44 -20 57 l-20 24 -19 -22 c-21 -25 -18 -61 5 -70 16 -6 19
-53 4 -53 -5 0 -18 10 -30 22 -25 27 -27 103 -4 136 14 20 23 22 111 22 87 0
94 -2 88 -17z m377 -42 c37 -41 36 -61 -1 -61 -21 0 -32 6 -36 20 -12 36 -95
39 -109 4 -10 -27 20 -50 81 -63 60 -14 103 -47 103 -80 0 -85 -94 -135 -183
-98 -36 16 -51 32 -61 65 -6 19 -4 22 18 22 14 0 36 -11 50 -25 28 -27 52 -31
91 -13 27 12 33 39 13 56 -7 5 -39 18 -72 27 -72 21 -96 44 -96 91 0 26 8 43
30 66 29 28 35 30 87 26 48 -4 61 -10 85 -37z m356 -125 l3 -157 -28 3 -28 3
-3 145 c-1 79 -1 149 2 155 2 7 15 11 28 10 23 -2 23 -2 26 -159z m82 128 c0
-19 -5 -24 -25 -24 -20 0 -25 5 -25 24 0 13 6 26 13 29 22 7 37 -4 37 -29z
m233 27 c4 -1 7 -71 7 -156 l0 -155 -24 0 c-13 0 -26 5 -28 10 -2 7 -16 5 -36
-6 -68 -33 -122 19 -122 119 0 89 55 136 122 102 17 -8 33 -15 35 -15 3 0 4
21 3 48 -2 62 -3 61 18 57 9 -2 20 -4 25 -4z m85 -24 c3 -23 0 -27 -22 -27
-21 0 -26 5 -26 23 0 29 6 36 28 33 10 -2 18 -14 20 -29z m681 3 c41 -12 81
-47 81 -72 0 -25 -42 -24 -58 2 -18 30 -60 43 -92 30 -38 -16 -60 -60 -60
-120 0 -44 4 -56 29 -81 39 -39 91 -40 120 -3 31 39 27 54 -14 54 -28 0 -35 4
-35 20 0 18 7 20 60 20 l59 0 3 -107 3 -108 28 -3 c22 -3 30 1 34 17 3 14 13
21 29 21 29 0 30 -6 4 -47 -43 -71 -150 -33 -150 53 0 35 -8 42 -26 24 -18
-18 -99 -14 -133 6 -41 24 -61 70 -61 139 0 74 29 128 79 149 43 18 56 19 100
6z m-592 -12 c-1 -46 1 -48 63 -48 53 0 60 -2 60 -20 0 -16 -8 -19 -62 -22
l-63 -3 1 -58 c2 -53 15 -87 35 -87 20 0 39 35 39 71 0 35 3 39 25 39 23 0 25
-3 25 -49 0 -69 -31 -106 -90 -106 -34 0 -47 6 -66 28 -22 26 -24 36 -24 148
l0 119 29 0 c17 0 29 -5 28 -12z m1653 -44 l0 -56 25 16 c30 20 75 21 101 2
16 -12 20 -29 22 -110 l4 -96 -26 0 c-26 0 -26 1 -26 78 0 88 -7 105 -45 105
-41 0 -50 -17 -53 -103 -3 -66 -7 -79 -22 -83 -11 -3 -21 -2 -24 1 -3 3 -6 72
-6 154 l0 148 25 0 c24 0 25 -3 25 -56z m1038 -41 c1 -95 -13 -123 -62 -123
-42 0 -51 11 -68 80 -9 37 -19 56 -30 58 -25 5 -35 -43 -14 -67 19 -21 21 -61
4 -61 -57 1 -80 119 -33 165 22 23 32 25 113 25 l89 0 1 -77z m-3323 33 c87
-37 87 -185 -1 -222 -72 -30 -143 11 -158 91 -10 49 18 105 64 127 42 22 51
22 95 4z m225 -111 l0 -115 -25 0 -25 0 0 115 0 115 25 0 25 0 0 -115z m320 0
l0 -115 -25 0 -25 0 0 115 0 115 25 0 25 0 0 -115z m290 48 c0 -103 5 -115 49
-111 l36 3 3 88 3 87 29 0 30 0 0 -124 c0 -67 -5 -137 -11 -155 -17 -48 -89
-76 -144 -55 -16 6 -45 54 -45 74 0 18 45 11 58 -10 14 -22 51 -27 70 -8 7 7
12 25 12 40 0 25 -2 27 -19 18 -36 -19 -78 -12 -100 16 -18 23 -21 41 -21 115
0 88 0 89 25 89 24 0 25 -2 25 -67z m676 22 c23 -23 25 -31 22 -112 -2 -72 -6
-87 -18 -84 -21 5 -50 3 -88 -5 -47 -9 -82 16 -82 60 0 42 13 52 79 67 57 12
75 34 46 55 -26 19 -42 17 -62 -6 -20 -23 -53 -27 -53 -5 0 55 110 76 156 30z
m104 10 c0 -8 4 -15 9 -15 5 0 14 7 21 15 16 19 70 19 96 1 16 -12 20 -29 23
-100 4 -101 0 -116 -28 -109 -19 5 -21 13 -21 82 0 82 -9 101 -46 101 -41 0
-54 -25 -54 -105 0 -64 -2 -73 -19 -78 -19 -5 -20 2 -23 109 -3 113 -3 114 20
114 13 0 22 -6 22 -15z m345 -10 c23 -22 25 -32 25 -110 l0 -85 -37 0 c-21 1
-53 -2 -71 -6 -47 -9 -82 16 -82 60 0 42 13 52 79 67 57 12 75 34 46 55 -26
19 -42 17 -62 -6 -20 -23 -53 -27 -53 -5 0 55 110 76 155 30z m219 4 c31 -25
35 -59 6 -59 -10 0 -24 9 -30 20 -14 27 -65 27 -80 1 -15 -30 -12 -92 7 -113
20 -23 59 -23 71 -1 12 20 52 25 52 6 0 -28 -48 -63 -85 -63 -49 0 -74 15 -91
55 -26 62 -10 139 33 164 30 18 88 13 117 -10z m451 -1 c15 -14 28 -38 32 -60
l6 -38 -77 0 c-73 0 -76 -1 -76 -23 0 -45 34 -58 97 -35 44 16 54 2 20 -28
-41 -35 -99 -33 -138 5 -25 26 -29 37 -29 86 0 49 4 60 29 86 38 37 97 40 136
7z m-3218 -90 c0 -13 -5 -26 -10 -29 -5 -4 -4 -15 2 -27 17 -32 13 -80 -9
-102 -42 -42 -85 -19 -100 54 -14 70 -35 89 -61 57 -15 -19 -17 -27 -7 -44 6
-12 15 -25 20 -28 6 -4 8 -17 6 -30 l-3 -24 -27 27 c-38 37 -40 107 -3 143 22
23 32 25 109 25 82 0 85 -1 83 -22z m3913 -83 c0 -25 -1 -25 -78 -25 -65 0
-82 -3 -96 -19 -14 -15 -15 -24 -7 -40 10 -17 23 -21 94 -23 81 -3 82 -3 85
-30 l3 -28 -85 0 c-93 0 -112 -12 -95 -57 8 -21 14 -23 94 -23 l85 0 0 -30 0
-31 -112 3 c-100 3 -113 5 -116 21 -2 10 4 24 13 31 15 11 15 13 1 25 -21 17
-20 69 1 93 15 17 15 19 0 36 -23 25 -21 74 3 100 19 20 31 22 115 22 95 0 95
0 95 -25z m-3980 -143 c47 -23 64 -62 66 -154 l2 -78 -144 0 -144 0 0 80 c0
91 15 131 58 154 37 21 119 20 162 -2z m4258 -186 c2 -10 0 -22 -6 -28 -6 -6
-8 0 -5 16 3 15 1 26 -6 26 -6 0 -11 -5 -11 -12 0 -6 -3 -9 -6 -5 -9 9 6 29
19 24 7 -2 14 -12 15 -21z m-315 -17 c33 -25 48 -81 38 -137 -9 -47 -44 -92
-73 -92 -27 0 -23 44 7 74 38 38 29 116 -14 116 -26 0 -36 -16 -56 -85 -19
-68 -29 -83 -64 -96 -34 -13 -78 6 -96 42 -38 72 2 189 64 189 20 0 12 -51
-11 -69 -26 -22 -29 -75 -4 -99 27 -27 49 -3 69 74 11 38 26 77 35 87 21 23
73 22 105 -4z m277 -11 c0 -4 -4 -8 -9 -8 -6 0 -12 4 -15 8 -3 5 1 9 9 9 8 0
15 -4 15 -9z m27 -42 c-10 -8 -15 -20 -11 -30 10 -25 -12 -19 -30 9 -13 20
-13 23 -2 19 8 -3 23 -1 33 5 25 15 31 13 10 -3z m-2666 -76 c68 -19 106 -95
93 -182 -8 -49 -59 -108 -93 -108 -17 0 -21 6 -21 35 0 19 4 35 9 35 22 0 41
34 41 71 0 51 -27 79 -77 79 -36 0 -36 0 -18 -20 25 -27 25 -108 2 -144 -53
-81 -216 -77 -267 6 -26 43 -26 98 1 132 17 21 18 26 5 26 -12 0 -16 10 -16
40 l0 40 153 0 c83 0 168 -5 188 -10z m849 -56 l0 -54 -160 0 c-160 0 -161 0
-187 -26 -21 -22 -25 -32 -20 -66 3 -26 15 -51 31 -67 26 -25 30 -26 181 -29
l155 -4 0 -54 0 -54 -225 0 -225 0 0 55 0 55 32 0 32 0 -26 28 c-38 41 -48 65
-48 122 0 55 15 94 50 125 20 18 40 20 209 25 102 3 189 4 194 2 4 -2 7 -28 7
-58z m601 37 c39 -40 41 -109 4 -146 -33 -33 -65 -33 -65 0 0 15 6 25 15 25
14 0 35 29 35 49 0 20 -40 51 -65 51 -25 0 -25 0 -10 -31 20 -38 12 -83 -18
-104 -15 -11 -47 -15 -109 -15 -87 0 -88 0 -88 25 0 25 1 25 79 25 70 0 82 3
95 21 8 12 12 29 9 38 -11 32 -36 41 -110 41 -71 0 -73 1 -73 25 l0 25 136 0
136 0 29 -29z m1226 -5 c-4 -9 -12 -16 -19 -16 -10 0 -9 3 1 9 9 6 11 16 7 27
-6 15 -4 16 5 7 6 -6 9 -19 6 -27z m-42 -14 c-3 -3 -11 0 -18 7 -9 10 -8 11 6
5 10 -3 15 -9 12 -12z m40 -43 c9 -28 -16 -53 -44 -44 -20 6 -29 43 -14 58 15
15 52 6 58 -14z m-22 -76 c-13 -2 -35 -2 -50 0 -16 2 -5 4 22 4 28 0 40 -2 28
-4z m15 -25 c7 -7 12 -17 12 -22 0 -6 -5 -3 -11 7 -5 9 -16 17 -24 17 -8 0
-19 -8 -24 -17 -9 -16 -10 -16 -11 -1 0 26 37 37 58 16z m-888 -48 l0 -30
-106 0 -105 0 3 -52 3 -53 98 -3 98 -3 -3 -27 -3 -27 -97 -3 -98 -3 0 -59 0
-60 110 0 110 0 0 -30 0 -30 -145 0 -145 0 0 205 0 205 140 0 140 0 0 -30z
m389 -37 c-2 -44 2 -68 9 -71 7 -2 12 0 12 6 0 13 47 32 81 32 20 0 40 -10 60
-29 29 -29 29 -30 29 -155 l0 -126 -35 0 -35 0 0 113 c0 125 -5 137 -56 137
-49 0 -58 -20 -64 -139 l-5 -106 -32 -3 -33 -3 0 205 0 206 36 0 35 0 -2 -67z
m-939 27 c0 -11 -9 -29 -20 -40 -45 -45 -3 -98 68 -87 58 10 80 52 42 84 -23
20 -27 63 -6 63 8 0 26 -14 40 -31 37 -44 36 -101 -3 -140 -26 -25 -37 -29
-86 -29 -49 0 -60 4 -86 29 -37 37 -41 104 -8 145 25 31 59 35 59 6z m660 -31
l0 -39 85 0 c84 0 85 0 85 -25 0 -25 -1 -25 -85 -25 l-85 0 0 -84 c0 -89 11
-116 50 -116 34 0 50 28 50 86 l0 54 36 0 37 0 -5 -63 c-8 -96 -45 -137 -121
-137 -46 0 -80 20 -99 60 -15 29 -18 62 -18 181 0 80 2 148 5 151 3 2 18 3 35
0 27 -4 30 -8 30 -43z m787 37 c3 -3 -18 -6 -48 -5 -37 0 -48 3 -34 8 22 9 72
7 82 -3z m-5837 -161 l0 -155 -25 0 c-27 0 -26 -5 -26 135 0 181 -1 175 26
175 l25 0 0 -155z m328 108 l3 -33 60 0 c45 0 59 -3 59 -15 0 -10 -15 -15 -57
-17 l-58 -3 -3 -67 c-3 -59 0 -68 17 -78 29 -15 61 19 61 65 0 28 4 35 20 35
17 0 20 -7 20 -52 0 -39 -5 -57 -22 -75 -29 -31 -92 -32 -125 -1 -22 20 -23
29 -23 150 0 128 0 129 23 126 17 -2 23 -11 25 -35z m5432 -31 c41 -20 70 -71
70 -124 l0 -38 -100 0 c-94 0 -100 -1 -100 -20 0 -26 43 -70 68 -70 11 0 31 9
45 20 14 11 39 20 57 20 l31 0 -17 -30 c-51 -86 -201 -76 -240 15 -19 47 -18
132 4 175 19 39 71 70 117 70 17 0 46 -8 65 -18z m270 -16 c0 -29 -4 -35 -27
-41 -56 -14 -63 -29 -63 -137 l0 -98 -35 0 -35 0 0 150 0 150 30 0 c20 0 30
-5 30 -15 0 -20 7 -19 37 5 40 32 63 27 63 -14z m230 16 c41 -20 70 -71 70
-124 l0 -38 -100 0 c-94 0 -100 -1 -100 -20 0 -12 11 -32 26 -46 19 -20 31
-24 52 -19 15 3 32 13 38 21 6 8 28 14 48 14 l37 0 -17 -30 c-50 -83 -193 -77
-236 10 -11 21 -18 58 -18 90 0 96 54 160 135 160 17 0 46 -8 65 -18z m627 -6
l28 -24 29 25 c23 20 37 24 64 20 72 -12 92 -56 92 -202 l0 -105 -34 0 -34 0
-4 109 c-3 116 -13 141 -54 141 -41 0 -54 -34 -54 -147 l0 -103 -35 0 -35 0 0
109 c0 119 -9 141 -55 141 -42 0 -55 -34 -55 -147 l0 -103 -35 0 -35 0 0 150
0 150 35 0 c30 0 35 -4 35 -22 1 -20 2 -21 13 -7 34 44 92 50 134 15z m-6702
0 c73 -31 87 -143 25 -199 -29 -26 -38 -29 -82 -25 -69 7 -91 31 -96 105 -3
49 0 63 18 86 37 47 78 57 135 33z m466 -12 c16 -15 19 -32 19 -116 0 -90 -2
-98 -19 -98 -11 0 -23 5 -26 10 -4 7 -12 7 -25 0 -54 -29 -120 1 -120 55 0 38
22 59 75 70 57 13 65 16 65 30 0 23 -36 38 -60 25 -11 -6 -20 -15 -20 -20 0
-6 -11 -10 -25 -10 -28 0 -32 16 -10 47 25 36 110 40 146 7z m5789 -87 c0
-125 5 -137 56 -137 52 0 64 27 64 147 l0 103 35 0 35 0 0 -150 0 -150 -35 0
c-30 0 -35 4 -35 23 -1 19 -2 20 -13 6 -28 -36 -88 -50 -128 -29 -38 21 -49
62 -49 185 l0 115 35 0 35 0 0 -113z m-3330 58 l0 -35 -98 0 c-72 0 -103 -4
-120 -16 -31 -22 -29 -67 4 -93 23 -18 41 -21 120 -21 l94 0 0 -35 0 -35 -145
0 -145 0 0 35 c0 24 5 35 15 35 20 0 19 7 -5 37 -33 42 -23 118 19 150 11 8
58 12 139 13 l122 0 0 -35z m1420 -115 l0 -30 -78 0 c-80 0 -102 -9 -102 -41
0 -36 28 -49 106 -49 l75 0 -3 -27 -3 -28 -105 0 -105 0 -3 28 c-2 20 1 27 13
27 15 0 15 2 1 22 -22 31 -20 84 4 108 17 17 33 20 110 20 l90 0 0 -30z
m-3630 10 c0 -5 -2 -10 -4 -10 -3 0 -8 5 -11 10 -3 6 -1 10 4 10 6 0 11 -4 11
-10z m2600 -55 l0 -55 -55 0 -55 0 0 55 0 55 55 0 55 0 0 -55z m510 0 l0 -55
-225 0 -225 0 0 55 0 55 225 0 225 0 0 -55z m-2976 -14 c33 -31 35 -85 6 -116
-18 -20 -19 -23 -5 -35 10 -9 15 -31 15 -71 0 -56 -1 -59 -25 -59 -23 0 -25 4
-25 43 0 64 -15 79 -75 75 l-50 -3 -3 -57 c-3 -54 -5 -58 -27 -58 l-25 0 0
156 0 156 94 -4 c84 -3 97 -6 120 -27z m676 4 c0 -20 -5 -25 -25 -25 -20 0
-25 5 -25 25 0 20 5 25 25 25 20 0 25 -5 25 -25z m-456 -81 c14 -15 26 -30 26
-34 0 -4 3 -22 6 -39 l7 -31 -76 0 c-42 0 -78 -3 -80 -7 -3 -5 -1 -18 4 -30
11 -30 45 -38 74 -19 25 17 65 22 65 8 0 -20 -33 -51 -61 -57 -53 -12 -98 3
-119 38 -35 57 -20 159 27 186 10 6 37 11 59 11 31 0 48 -6 68 -26z m106 11
c0 -8 3 -15 6 -15 3 0 12 7 20 15 21 21 81 19 93 -2 9 -17 10 -17 28 0 27 23
72 21 100 -5 21 -19 23 -30 23 -115 0 -92 0 -93 -25 -93 -23 0 -24 2 -27 81
-2 65 -7 84 -20 93 -13 8 -23 8 -35 0 -14 -9 -19 -28 -21 -93 l-3 -81 -29 0
-29 0 -3 88 -3 87 -30 0 -30 0 -3 -87 -3 -88 -29 0 -30 0 0 108 c0 60 3 112 7
115 12 13 43 7 43 -8z m350 -100 l0 -115 -25 0 -25 0 0 115 0 115 25 0 25 0 0
-115z m105 86 c22 -44 33 -46 52 -7 13 29 22 36 45 36 15 0 28 -3 28 -8 0 -4
-15 -30 -34 -58 l-35 -51 35 -51 c19 -28 34 -54 34 -57 0 -3 -14 -5 -30 -5
-24 0 -35 7 -48 30 -9 16 -19 30 -22 30 -3 0 -13 -14 -22 -30 -13 -23 -24 -30
-49 -30 l-31 0 17 27 c10 14 26 40 36 58 l19 31 -35 52 c-19 28 -35 54 -35 57
0 3 13 5 30 5 23 0 33 -7 45 -29z m2086 -39 c39 -20 62 -41 84 -77 27 -43 30
-57 30 -129 0 -71 -4 -87 -28 -128 -65 -111 -233 -142 -348 -66 -105 70 -119
276 -25 367 69 67 194 82 287 33z m-1123 -19 c-3 -35 -6 -38 -35 -41 -32 -3
-33 -2 -33 37 0 40 1 41 36 41 35 0 35 -1 32 -37z m332 -3 l0 -40 -145 0 -145
0 0 40 0 40 145 0 145 0 0 -40z m1820 -9 c0 -10 -9 -21 -20 -24 -16 -4 -20 0
-20 19 0 17 6 24 20 24 13 0 20 -7 20 -19z m990 -1 c0 -15 -7 -20 -25 -20 -18
0 -25 5 -25 20 0 15 7 20 25 20 18 0 25 -5 25 -20z m-1480 -70 c0 -84 7 -95
42 -63 22 20 23 56 3 73 -13 11 -22 60 -11 60 34 0 66 -51 66 -104 0 -74 -83
-123 -164 -96 -44 14 -66 48 -66 103 0 64 38 100 113 106 15 1 17 -9 17 -79z
m270 -45 l0 -125 75 0 c73 0 75 -1 75 -25 l0 -25 -100 0 -100 0 0 150 0 150
25 0 25 0 0 -125z m300 86 c0 -29 22 -41 77 -41 40 0 53 -4 53 -15 0 -10 -16
-15 -62 -17 l-63 -3 -3 -46 c-4 -62 11 -99 41 -99 33 0 47 18 47 62 0 31 4 38
20 38 17 0 20 -7 20 -47 0 -63 -27 -93 -85 -93 -70 0 -79 19 -83 165 -4 121
-3 123 17 118 12 -3 21 -13 21 -22z m-4869 -11 c10 -6 19 -17 19 -25 0 -22 18
-18 25 4 3 11 13 22 21 25 19 7 54 -10 54 -26 0 -9 -3 -9 -12 0 -21 21 -47 14
-54 -14 -8 -32 19 -65 38 -46 17 17 33 15 18 -3 -17 -21 -48 -19 -62 5 -7 11
-16 20 -19 20 -4 0 -9 -9 -12 -20 -5 -20 -30 -26 -61 -14 -23 9 -22 80 2 93
21 13 20 13 43 1z m289 -4 c10 -13 7 -15 -17 -13 -25 2 -28 -2 -31 -29 -3 -34
22 -54 42 -34 16 16 30 12 16 -5 -25 -31 -80 -6 -80 36 0 19 33 59 49 59 5 0
14 -7 21 -14z m-443 -41 c2 -43 -8 -55 -49 -55 -27 0 -28 2 -28 51 l0 50 37
-3 c36 -3 37 -5 40 -43z m49 -35 c13 0 24 -4 24 -10 0 -5 -13 -10 -30 -10 -30
0 -30 0 -28 53 1 50 2 50 5 10 4 -38 7 -43 29 -43z m254 65 c0 -8 5 -15 10
-15 6 0 13 7 16 15 4 8 10 15 15 15 5 0 4 -9 -3 -20 -10 -16 -9 -25 5 -50 10
-17 13 -30 7 -30 -6 0 -16 11 -22 25 -6 14 -15 25 -20 25 -4 0 -8 -11 -8 -25
0 -14 -4 -25 -10 -25 -5 0 -10 23 -10 50 0 28 5 50 10 50 6 0 10 -7 10 -15z
m205 -25 c9 0 20 10 25 23 7 17 9 9 8 -33 -1 -30 -3 -43 -5 -27 -3 21 -10 27
-28 27 -18 0 -25 -6 -28 -27 -2 -16 -4 -3 -5 27 -1 42 1 50 8 33 5 -13 16 -23
25 -23z m120 -6 c18 -48 16 -65 -5 -39 -16 19 -25 19 -46 -2 -17 -17 -17 -16
-11 9 12 47 26 78 35 78 5 0 17 -21 27 -46z m45 -5 c0 -31 -4 -48 -10 -44 -5
3 -10 26 -10 51 0 24 5 44 10 44 6 0 10 -23 10 -51z m50 19 c19 -32 23 -30 33
17 3 11 5 -4 6 -32 0 -29 -3 -53 -7 -53 -4 0 -18 17 -30 38 l-22 37 0 -32 c0
-17 -4 -35 -10 -38 -6 -4 -10 13 -10 44 0 59 12 64 40 19z m4623 -8 c22 -17
47 -72 47 -102 0 -5 -36 -8 -80 -8 -64 0 -80 -3 -80 -15 0 -27 40 -58 63 -50
12 4 38 9 57 12 l35 4 -28 -25 c-33 -30 -99 -35 -134 -11 -28 19 -46 84 -37
130 13 73 101 109 157 65z m240 -12 c32 -33 32 -33 9 -36 -13 -2 -32 4 -42 13
-10 9 -30 15 -46 13 -35 -4 -52 -50 -38 -106 7 -31 14 -38 37 -40 17 -2 36 3
47 13 10 9 29 15 42 13 23 -3 23 -3 -9 -36 -59 -60 -145 -38 -163 43 -8 34 0
110 12 119 63 48 107 49 151 4z m210 21 c70 -32 75 -172 8 -209 -37 -19 -97
-12 -130 16 -28 23 -31 31 -31 83 0 61 17 96 54 111 30 12 71 12 99 -1z m346
-15 c18 -23 21 -41 21 -115 0 -88 0 -89 -25 -89 -25 0 -25 1 -25 83 0 87 -8
107 -44 107 -43 0 -51 -15 -55 -105 -3 -82 -4 -85 -27 -85 -24 0 -24 1 -24
110 l0 110 25 0 c16 0 25 -6 25 -16 0 -13 5 -12 26 5 37 29 78 27 103 -5z
m-3019 -19 l0 -35 -98 0 c-112 0 -142 -13 -142 -59 0 -51 30 -66 141 -69 l99
-4 0 -34 0 -34 -145 0 -145 0 0 35 c0 24 5 35 15 35 20 0 19 7 -5 37 -33 42
-23 118 19 150 11 8 58 12 139 13 l122 0 0 -35z m1820 -75 c0 -103 -1 -110
-20 -110 -19 0 -20 7 -20 110 0 103 1 110 20 110 19 0 20 -7 20 -110z m990 0
l0 -110 -25 0 -25 0 0 110 0 110 25 0 25 0 0 -110z m-1560 -60 c0 -41 34 -60
109 -60 67 0 68 0 63 -25 -4 -25 -5 -25 -113 -25 -109 0 -109 0 -109 24 0 13
6 26 13 29 10 4 10 7 0 18 -7 7 -13 23 -13 36 0 18 6 23 25 23 18 0 25 -5 25
-20z m0 -150 c0 -40 35 -60 105 -60 63 0 65 -1 65 -25 l0 -25 -110 0 c-99 0
-110 2 -110 18 0 10 5 23 12 30 9 9 9 15 0 24 -7 7 -12 22 -12 35 0 18 6 23
25 23 18 0 25 -5 25 -20z m1070 0 c0 -10 -9 -24 -20 -30 -35 -19 -25 -40 19
-40 35 0 39 3 45 30 4 23 15 35 41 45 43 19 45 19 45 -3 0 -10 -9 -25 -20 -35
-22 -18 -19 -37 6 -37 8 0 14 -9 14 -20 0 -13 -7 -20 -20 -20 -19 0 -20 -7
-20 -95 0 -95 0 -95 -25 -95 -25 0 -25 0 -25 94 0 85 -2 94 -20 99 -11 3 -29
3 -40 0 -18 -5 -20 -14 -20 -99 0 -94 0 -94 -25 -94 -25 0 -25 0 -25 94 0 85
-2 94 -20 99 -23 6 -27 37 -4 37 8 0 20 14 26 31 7 20 22 36 42 45 42 18 46
17 46 -6z m200 -140 l0 -160 -25 0 -25 0 0 160 0 160 25 0 25 0 0 -160z
m-2852 113 c-3 -35 -6 -38 -35 -41 -32 -3 -33 -2 -33 37 0 40 1 41 36 41 35 0
35 -1 32 -37z m332 -3 l0 -40 -145 0 -145 0 0 40 0 40 145 0 145 0 0 -40z
m1810 21 c0 -16 -8 -20 -42 -23 l-43 -3 -3 -132 -3 -133 -29 0 -29 0 -3 133
-3 132 -42 3 c-35 3 -43 7 -43 23 0 18 8 19 120 19 112 0 120 -1 120 -19z
m-1210 -99 c0 -53 -2 -60 -25 -70 -46 -21 -59 -92 -24 -135 42 -54 171 -59
229 -10 40 33 42 92 5 128 -13 14 -29 25 -35 25 -6 0 -10 25 -10 60 0 35 4 60
10 60 6 0 28 -9 50 -20 142 -72 144 -306 4 -376 -30 -15 -60 -19 -134 -19 -85
0 -100 3 -141 27 -57 33 -81 80 -87 165 -7 98 33 178 103 209 51 22 55 19 55
-44z m1355 18 c0 -17 -7 -26 -25 -30 -34 -8 -50 -44 -50 -117 0 -60 -1 -63
-25 -63 l-25 0 0 115 c0 115 0 115 24 115 13 0 27 -6 29 -12 4 -9 8 -10 14 -2
22 30 58 26 58 -6z m762 8 c19 -16 43 -70 43 -98 0 -18 -6 -20 -80 -20 -44 0
-80 -3 -80 -8 0 -4 7 -18 16 -30 16 -23 53 -29 71 -11 6 6 23 9 39 7 l29 -3
-27 -27 c-37 -38 -107 -40 -143 -4 -59 59 -39 180 35 209 22 9 79 0 97 -15z
m-687 -71 c0 -85 8 -107 41 -107 37 0 49 28 49 111 0 78 0 79 25 79 l25 0 0
-115 0 -115 -25 0 c-17 0 -25 6 -25 17 0 15 -1 15 -18 0 -26 -24 -77 -21 -102
5 -17 19 -20 35 -20 115 0 93 0 93 25 93 25 0 25 -1 25 -83z m-2030 8 l0 -35
-103 0 c-90 0 -106 -3 -121 -19 -23 -26 -17 -63 14 -78 15 -7 63 -13 118 -13
l92 0 0 -35 0 -35 -98 0 c-72 0 -103 -4 -120 -16 -26 -18 -28 -50 -5 -76 14
-15 32 -18 120 -18 l103 0 0 -40 0 -40 -145 0 -145 0 0 40 c0 30 4 40 16 40
13 0 12 5 -5 26 -27 35 -27 93 -1 127 l21 26 -21 21 c-32 32 -27 94 9 131 29
29 30 29 150 29 l121 0 0 -35z m-1682 -137 l-3 -153 -25 0 -25 0 -3 153 -3
152 31 0 31 0 -3 -152z m212 137 c41 -21 63 -69 63 -135 0 -113 -45 -154 -167
-155 l-81 0 -3 153 -3 152 81 0 c53 0 91 -5 110 -15z m310 -5 c0 -22 -2 -22
-95 -24 l-60 -1 -3 -37 -3 -37 73 -3 c65 -3 73 -5 73 -23 0 -18 -8 -20 -73
-23 l-73 -3 3 -42 3 -42 80 -5 c72 -4 80 -7 80 -25 0 -19 -7 -20 -110 -20
l-110 0 -3 153 -3 152 111 0 c103 0 110 -1 110 -20z m2580 -20 c0 -16 -5 -30
-11 -30 -5 0 -3 -10 5 -22 21 -30 20 -71 -3 -99 -17 -22 -29 -24 -115 -27
l-96 -4 0 31 0 31 83 0 c83 0 107 9 107 39 0 8 -7 23 -17 33 -13 14 -31 18
-95 18 -76 0 -78 1 -78 24 0 32 8 34 123 35 l97 1 0 -30z m421 -193 c18 -12
39 -34 46 -47 12 -23 11 -25 -13 -28 -17 -2 -33 5 -49 22 -33 35 -83 35 -116
0 -20 -22 -24 -36 -24 -91 0 -59 3 -67 28 -89 34 -29 76 -31 105 -4 33 31 29
60 -8 60 -25 0 -30 4 -30 25 0 25 2 26 58 23 l57 -3 5 -110 c4 -95 7 -110 23
-113 22 -4 47 15 47 36 0 8 -11 25 -25 38 -48 44 -21 97 60 117 39 9 50 16 50
32 0 25 -46 33 -65 11 -13 -17 -60 -22 -60 -7 0 4 9 20 21 35 18 22 28 26 74
26 46 0 56 -4 74 -26 18 -23 21 -41 21 -117 l0 -90 -37 6 c-47 8 -66 -3 -70
-40 -5 -36 -46 -73 -82 -73 -44 0 -78 33 -85 84 l-7 44 -27 -14 c-38 -19 -81
-17 -119 6 -52 32 -68 65 -68 145 0 58 4 76 24 104 44 62 131 79 192 38z
m-561 -35 c0 -16 -8 -32 -20 -40 -23 -14 -26 -54 -6 -71 23 -19 94 -16 116 4
25 23 25 40 0 65 -11 11 -20 31 -20 44 0 20 4 23 21 19 27 -7 59 -60 59 -96 0
-86 -97 -135 -180 -92 -37 19 -50 43 -50 95 0 33 6 48 29 71 37 36 51 37 51 1z
m1027 -47 c26 -17 31 -55 8 -55 -9 0 -29 9 -44 21 -24 17 -32 19 -50 9 -32
-17 -21 -33 35 -48 59 -17 84 -37 84 -69 0 -58 -54 -89 -127 -73 -35 8 -73 40
-73 61 0 16 52 10 65 -7 13 -19 61 -22 77 -6 18 18 -8 40 -54 47 -47 8 -78 35
-78 68 0 23 31 59 60 70 21 9 70 -1 97 -18z m-1777 -205 l0 -130 114 0 c99 0
117 3 140 21 46 36 30 111 -27 124 -12 3 -51 6 -87 7 l-65 3 0 50 0 50 85 3
c74 2 92 -1 130 -21 85 -45 116 -162 68 -257 -43 -84 -47 -85 -319 -88 l-239
-3 0 55 0 56 60 0 60 0 0 130 0 130 40 0 40 0 0 -130z m-448 18 c3 -41 4 -43
39 -46 23 -2 40 2 48 12 20 24 6 46 -29 46 -20 0 -30 5 -30 15 0 10 10 15 32
15 61 0 89 -59 48 -100 -16 -16 -33 -20 -95 -20 -57 0 -75 3 -75 14 0 7 9 16
20 19 16 4 20 14 20 46 0 54 18 53 22 -1z m1288 17 c87 -45 75 -189 -17 -214
-84 -23 -153 27 -153 112 0 49 13 73 53 97 38 24 78 25 117 5z m-1180 -135
c22 -22 25 -42 10 -71 -10 -17 -7 -19 35 -19 33 0 45 -4 45 -15 0 -12 -19 -15
-108 -15 l-108 0 -2 55 c-1 46 2 57 21 70 30 21 83 19 107 -5z m1050 -175 l0
-65 65 0 c51 0 66 4 73 18 20 37 -5 62 -60 62 -34 0 -38 3 -38 25 0 23 4 25
41 25 71 0 108 -31 109 -92 0 -24 -8 -46 -23 -64 -23 -26 -26 -27 -143 -28
l-119 -1 -3 28 c-3 24 0 27 27 27 l31 0 0 65 c0 58 2 65 20 65 18 0 20 -7 20
-65z m-1200 10 c0 -8 -7 -15 -15 -15 -8 0 -15 7 -15 15 0 8 7 15 15 15 8 0 15
-7 15 -15z m168 3 c-3 -9 -30 -14 -76 -16 -60 -2 -72 0 -72 13 0 12 14 15 76
15 56 0 75 -3 72 -12z m-118 -53 c0 -21 32 -35 79 -35 30 0 41 -4 41 -15 0
-12 -15 -15 -74 -15 l-73 0 0 40 c0 27 4 40 13 40 8 0 14 -7 14 -15z m300 -46
l0 -60 -52 3 -53 3 -3 44 c-5 65 0 71 58 71 l50 0 0 -61z m508 4 l-3 -58 -222
-3 -223 -2 0 60 0 60 225 0 226 0 -3 -57z m-788 -55 c0 -6 -8 -20 -17 -30 -13
-15 -15 -23 -7 -36 13 -21 60 -28 80 -11 16 13 19 49 4 49 -5 0 -10 9 -10 20
0 26 15 25 34 -2 37 -52 4 -108 -63 -108 -49 0 -71 21 -71 65 0 32 21 65 41
65 5 0 9 -5 9 -12z m1265 -22 c18 -8 39 -24 45 -36 12 -22 10 -70 -5 -102 -6
-16 0 -18 54 -18 58 0 61 -1 61 -25 l0 -25 -165 0 -165 0 0 24 c0 13 6 26 13
29 10 4 10 7 0 18 -18 19 -15 80 5 106 32 42 97 54 157 29z m-564 -39 c19 -12
45 -43 59 -67 23 -43 25 -55 28 -233 l4 -187 -306 0 -306 0 0 168 c0 189 8
229 54 280 31 33 39 36 99 40 63 4 68 3 98 -27 l31 -32 15 21 c44 62 159 81
224 37z m1449 -37 c0 -12 -7 -20 -17 -20 -54 0 -123 -78 -123 -138 0 -70 61
-142 119 -142 15 0 21 -6 21 -21 0 -19 -4 -21 -32 -15 -49 10 -103 50 -123 92
-22 46 -22 121 -2 161 21 39 71 81 105 89 15 3 32 7 37 9 6 2 11 4 13 4 1 1 2
-8 2 -19z m71 -47 c40 -24 73 -93 64 -135 -12 -59 -46 -96 -102 -113 -36 -10
-29 21 7 33 34 12 70 65 70 102 0 42 -47 99 -82 100 -22 0 -24 30 -2 30 9 0
29 -8 45 -17z m-2141 -15 c36 -38 17 -138 -26 -138 -18 0 -18 24 1 40 30 25 9
101 -22 82 -6 -4 -16 -26 -22 -49 -22 -83 -76 -99 -111 -34 -20 39 3 111 36
111 19 0 18 -24 -1 -40 -20 -16 -19 -54 1 -71 14 -11 18 -10 30 6 8 10 14 27
14 37 0 11 7 32 15 48 19 37 55 40 85 8z m2070 -13 c0 -8 -5 -15 -12 -15 -6 0
-22 -10 -35 -22 -41 -38 -27 -89 33 -124 29 -17 9 -28 -25 -14 -37 15 -65 70
-56 109 8 37 51 76 88 80 4 1 7 -6 7 -14z m360 -37 c0 -20 -1 -20 -18 -5 -23
21 -58 22 -66 1 -11 -29 -6 -71 10 -85 12 -10 22 -10 46 -1 25 9 28 9 18 -4
-16 -19 -60 -18 -88 2 -15 10 -22 25 -22 49 0 46 22 65 76 65 38 0 44 -3 44
-22z m129 -4 c12 -15 21 -32 21 -39 0 -7 -9 -24 -21 -39 -38 -48 -119 -22
-119 39 0 61 81 87 119 39z m163 -16 l37 -43 1 37 c0 20 -6 39 -12 41 -7 3 1
5 17 5 17 0 24 -2 18 -5 -9 -3 -13 -27 -13 -66 l-1 -62 -44 50 -45 50 0 -42
c0 -24 5 -43 13 -46 6 -3 -17 -5 -53 -5 -36 0 -59 2 -52 5 7 3 12 25 12 58 0
33 -5 55 -12 58 -7 3 12 6 42 6 53 1 57 0 92 -41z m168 22 c0 -23 -15 -27 -24
-5 -7 18 -36 20 -36 2 0 -7 14 -23 30 -35 51 -38 36 -72 -31 -72 -23 0 -29 4
-29 22 0 20 1 20 18 5 24 -22 42 -22 42 1 0 10 -13 26 -30 35 -49 29 -33 67
27 67 26 0 33 -4 33 -20z m140 -2 c0 -20 -1 -20 -18 -5 -23 21 -58 22 -66 1
-11 -29 -6 -71 10 -85 12 -10 22 -10 46 -1 25 9 28 9 18 -4 -16 -19 -60 -18
-88 2 -15 10 -22 25 -22 49 0 46 22 65 76 65 38 0 44 -3 44 -22z m63 15 c-8
-3 -13 -25 -13 -59 0 -51 2 -54 24 -54 14 0 28 5 31 10 10 16 25 12 19 -5 -4
-11 -21 -15 -58 -15 l-51 0 0 65 0 65 30 -1 c17 0 24 -3 18 -6z m187 -13 c41
-41 10 -110 -50 -110 -37 0 -70 31 -70 65 0 34 33 65 70 65 17 0 39 -9 50 -20z
m95 -21 l30 -41 3 33 c2 19 -2 35 -10 40 -7 5 23 9 75 9 75 0 87 -2 87 -17 0
-13 -3 -14 -12 -5 -7 7 -22 12 -35 12 -18 0 -23 -6 -23 -25 0 -27 26 -35 48
-13 9 9 12 6 12 -17 0 -23 -3 -26 -12 -17 -22 22 -48 14 -48 -13 0 -19 5 -25
23 -25 13 0 28 5 35 12 13 13 27 5 17 -11 -3 -6 -31 -11 -62 -11 -47 0 -54 2
-44 14 19 22 10 100 -11 104 -16 3 -18 -5 -18 -58 0 -34 -4 -60 -9 -58 -5 2
-25 23 -45 46 l-36 44 0 -40 c0 -23 5 -43 13 -45 6 -3 -4 -5 -23 -5 -19 0 -29
2 -22 5 7 3 12 25 12 58 0 33 -5 55 -12 58 -7 3 -2 6 12 6 18 0 33 -11 55 -40z
m-1251 9 c23 -33 19 -64 -11 -87 -14 -12 -28 -19 -31 -16 -3 3 4 12 16 21 28
19 29 60 2 76 -23 15 -26 28 -6 28 8 0 22 -10 30 -22z m-839 -53 c51 -21 71
-89 44 -148 -12 -26 -54 -51 -70 -42 -15 10 -10 45 6 51 51 20 31 94 -26 94
-29 0 -30 -1 -15 -22 24 -34 19 -66 -13 -99 -28 -28 -34 -29 -116 -29 l-86 0
3 28 c3 27 4 27 85 30 71 2 84 6 94 23 8 16 7 26 -6 45 -14 22 -22 24 -95 24
-77 0 -80 1 -80 23 0 13 3 27 7 30 13 14 233 7 268 -8z m-1269 -95 c3 -44 -16
-90 -36 -90 -19 0 -50 40 -50 64 0 29 -17 43 -33 27 -9 -9 -8 -16 1 -31 6 -11
12 -27 12 -35 0 -13 -4 -14 -20 -5 -15 8 -20 21 -20 50 0 56 20 72 88 68 l56
-3 2 -45z m-66 -127 c93 -32 93 -52 -1 -87 -84 -31 -79 -31 -79 -7 0 13 12 22
45 31 25 7 45 16 45 20 0 4 -20 13 -45 20 -34 9 -45 17 -45 32 0 15 4 18 18
13 9 -4 37 -14 62 -22z m1110 -12 c0 -37 27 -51 101 -51 l69 0 0 -30 0 -30
-110 0 c-110 0 -110 0 -110 24 0 13 5 26 11 28 9 3 9 9 0 25 -18 35 -14 53 14
53 18 0 25 -5 25 -19z"/>
<path d="M1660 3760 c-26 -26 -25 -50 0 -78 41 -44 140 -17 140 38 0 33 -36
60 -80 60 -27 0 -47 -7 -60 -20z"/>
<path d="M1725 3493 c9 -48 23 -65 49 -61 15 2 22 12 24 31 4 35 -22 67 -56
67 -23 0 -24 -2 -17 -37z"/>
<path d="M2734 3395 c-30 -45 -2 -125 43 -125 7 0 23 10 34 21 17 17 20 29 16
61 -3 21 -11 45 -17 53 -19 23 -58 18 -76 -10z"/>
<path d="M5636 3442 c-9 -15 14 -80 30 -86 23 -9 34 2 34 34 0 37 -49 76 -64
52z"/>
<path d="M2326 3398 c-34 -48 -7 -128 42 -128 22 0 47 25 56 56 7 24 -9 74
-27 86 -23 15 -56 8 -71 -14z"/>
<path d="M3852 3316 c-41 -14 -59 -41 -42 -62 28 -33 90 -1 90 47 0 32 -1 33
-48 15z"/>
<path d="M4302 3312 c-38 -12 -43 -17 -40 -41 4 -33 36 -39 67 -14 15 13 22
27 19 44 l-3 26 -43 -15z"/>
<path d="M4940 3381 c-18 -34 -12 -41 40 -41 41 0 50 3 50 18 0 42 -70 60 -90
23z"/>
<path d="M1725 3263 c9 -48 23 -65 49 -61 15 2 22 11 24 34 4 38 -19 64 -55
64 -24 0 -25 -2 -18 -37z"/>
<path d="M1612 3060 c-27 -11 -42 -47 -42 -101 l0 -40 108 3 107 3 3 45 c3 68
-20 93 -94 97 -33 1 -69 -2 -82 -7z"/>
<path d="M3075 2675 c-30 -30 -31 -54 -4 -89 17 -22 28 -26 70 -26 40 0 55 5
74 25 51 50 12 115 -70 115 -35 0 -52 -6 -70 -25z"/>
<path d="M5962 2678 c2 -15 10 -23 23 -23 30 0 27 39 -3 43 -20 3 -23 0 -20
-20z"/>
<path d="M5824 2385 c-27 -42 -13 -56 53 -53 47 2 58 7 61 21 10 53 -83 79
-114 32z"/>
<path d="M6324 2385 c-27 -41 -13 -55 56 -55 51 0 60 3 60 18 0 59 -84 86
-116 37z"/>
<path d="M276 2388 c-34 -48 -7 -128 43 -128 32 0 64 49 57 88 -3 19 -10 40
-17 48 -18 22 -66 17 -83 -8z"/>
<path d="M740 2317 c-35 -18 -33 -51 3 -55 35 -4 57 13 57 44 0 27 -20 31 -60
11z"/>
<path d="M1054 2196 c-3 -8 -4 -27 -2 -43 3 -27 6 -28 60 -31 49 -3 58 0 68
18 9 17 8 26 -5 46 -13 20 -24 24 -66 24 -34 0 -51 -5 -55 -14z"/>
<path d="M1338 2129 c-10 -5 -18 -19 -18 -29 0 -17 7 -20 45 -20 49 0 59 15
29 44 -18 18 -32 20 -56 5z"/>
<path d="M3869 1997 c-44 -30 -58 -85 -35 -140 20 -50 69 -71 150 -65 51 4 63
9 87 36 23 26 29 42 29 78 0 25 -5 54 -10 65 -28 52 -159 68 -221 26z"/>
<path d="M4546 2015 c-9 -9 -16 -25 -16 -35 0 -22 28 -52 44 -47 6 2 11 23 11
47 0 47 -14 60 -39 35z"/>
<path d="M277 2024 c-12 -13 -8 -51 8 -64 21 -18 47 5 43 39 -3 26 -35 41 -51
25z"/>
<path d="M110 2015 c0 -8 9 -15 20 -15 11 0 20 7 20 15 0 8 -9 15 -20 15 -11
0 -20 -7 -20 -15z"/>
<path d="M110 1975 c0 -8 9 -15 20 -15 11 0 20 7 20 15 0 8 -9 15 -20 15 -11
0 -20 -7 -20 -15z"/>
<path d="M760 2001 c0 -12 5 -21 10 -21 6 0 10 6 10 14 0 8 -4 18 -10 21 -5 3
-10 -3 -10 -14z"/>
<path d="M5417 1962 c-30 -32 -21 -42 38 -42 59 0 70 13 39 44 -21 21 -57 20
-77 -2z"/>
<path d="M5864 1955 c-19 -29 -14 -102 8 -116 19 -13 72 -11 86 3 18 18 15
103 -4 122 -24 25 -71 20 -90 -9z"/>
<path d="M5912 1568 c-25 -25 -13 -38 33 -38 45 0 50 5 39 34 -7 19 -55 21
-72 4z"/>
<path d="M1696 1513 c-3 -3 -6 -53 -6 -110 l0 -103 35 0 c73 0 105 35 105 115
0 58 -30 93 -86 100 -23 2 -44 2 -48 -2z"/>
<path d="M5303 1129 c-26 -8 -33 -15 -33 -35 0 -30 21 -40 52 -23 28 14 38 28
38 52 0 19 -9 20 -57 6z"/>
<path d="M4544 1005 c-36 -55 12 -107 84 -89 47 12 64 49 38 88 -14 22 -24 26
-61 26 -36 0 -48 -5 -61 -25z"/>
<path d="M3390 912 c-43 -35 7 -78 64 -56 22 9 20 51 -3 64 -27 14 -35 13 -61
-8z"/>
<path d="M4550 540 c-11 -11 -20 -27 -20 -35 0 -27 38 -55 75 -55 37 0 75 28
75 55 0 27 -38 55 -75 55 -22 0 -43 -8 -55 -20z"/>
<path d="M3941 444 c-18 -23 -21 -41 -21 -135 l0 -109 86 0 86 0 -4 111 c-3
107 -4 112 -31 135 -39 33 -89 32 -116 -2z"/>
<path d="M3699 433 c-10 -11 -15 -52 -17 -125 l-4 -108 71 0 71 0 0 96 c0 90
-9 130 -34 146 -20 14 -73 8 -87 -9z"/>
<path d="M5962 418 c-17 -17 -15 -73 3 -88 36 -30 76 21 56 73 -11 29 -39 35
-59 15z"/>
<path d="M6110 375 c0 -48 3 -56 18 -53 13 3 17 14 17 53 0 39 -4 50 -17 53
-15 3 -18 -5 -18 -53z"/>
<path d="M6678 405 c-17 -38 0 -80 32 -80 18 0 27 8 34 27 13 36 -6 78 -34 78
-12 0 -25 -10 -32 -25z"/>
<path d="M3427 273 c-3 -2 -1 -18 5 -34 10 -29 31 -38 43 -19 12 20 -32 70
-48 53z"/>
</g>
</svg>
