<?xml version="1.0" standalone="no"?>
<!DOCTYPE svg PUBLIC "-//W3C//DTD SVG 20010904//EN"
 "http://www.w3.org/TR/2001/REC-SVG-20010904/DTD/svg10.dtd">
<svg version="1.0" xmlns="http://www.w3.org/2000/svg"
 width="512.000000pt" height="512.000000pt" viewBox="0 0 512.000000 512.000000"
 preserveAspectRatio="xMidYMid meet">
<metadata>
Created by potrace 1.16, written by Peter Selinger 2001-2019
</metadata>
<g transform="translate(0.000000,512.000000) scale(0.100000,-0.100000)"
fill="#000000" stroke="none">
<path d="M2360 5099 c-231 -59 -445 -232 -540 -437 -20 -44 -28 -53 -45 -49
-150 36 -174 39 -300 34 -97 -3 -148 -10 -200 -27 -179 -57 -330 -164 -431
-307 -52 -71 -116 -206 -134 -278 -37 -155 -27 -361 26 -498 3 -10 -16 -28
-58 -54 -367 -233 -516 -700 -357 -1115 55 -141 166 -288 291 -384 113 -88
283 -161 414 -179 48 -6 52 -9 72 -50 34 -70 78 -126 143 -182 111 -94 237
-146 397 -164 149 -17 277 5 439 77 19 9 83 -134 95 -212 9 -58 7 -91 -11
-206 -29 -186 -28 -221 5 -247 27 -21 27 -27 3 -123 -8 -31 -14 -38 -34 -38
-37 0 -60 -29 -85 -106 -35 -109 -124 -282 -190 -368 -64 -85 -74 -121 -44
-164 l15 -22 729 0 729 0 15 22 c28 40 20 79 -30 144 -176 226 -279 526 -324
939 -18 165 -11 277 22 348 l27 58 62 -31 c342 -173 808 -40 961 275 20 41 24
44 72 50 131 18 301 91 414 179 229 176 354 437 353 736 -1 252 -102 487 -283
655 -40 37 -101 86 -136 108 -42 26 -61 44 -58 54 35 91 59 267 46 347 -7 50
-28 76 -61 76 -12 0 -20 11 -24 33 -4 17 -14 52 -22 75 -13 40 -13 46 3 63 30
33 22 78 -26 149 -91 135 -198 227 -343 295 -107 51 -178 67 -317 72 -120 5
-147 1 -295 -34 -17 -4 -25 5 -45 49 -71 152 -207 290 -365 368 -138 68 -229
90 -380 89 -84 -1 -143 -7 -195 -20z m210 -669 c252 -74 428 -378 335 -578
-149 -319 -1129 -1206 -1523 -1378 -86 -38 -126 -41 -220 -19 -233 55 -402
267 -402 503 1 229 161 438 381 496 30 8 53 18 52 23 -1 4 -14 37 -29 73 -35
85 -43 208 -21 297 47 180 178 320 357 379 113 37 283 17 396 -46 l51 -29 10
22 c29 62 105 147 169 189 84 55 139 76 224 86 83 10 139 5 220 -18z"/>
</g>
</svg>
